<svg id="eg9I0izjaEx1" xmlns="http://www.w3.org/2000/svg" xmlns:xlink="http://www.w3.org/1999/xlink" viewBox="0 0 64 64" shape-rendering="geometricPrecision" text-rendering="geometricPrecision" width="64" height="64"><ellipse rx="24" ry="24" transform="translate(32 32)" fill="none" stroke="#8c00ff" stroke-width="4"/><g transform="translate(.000001 0)"><polygon points="0,-7.944091 6.879785,3.972046 -6.879785,3.972046 0,-7.944091" transform="matrix(-1 0 0-1 8 30.307355)" fill="#8c00ff" stroke-width="0"/><polygon points="0,-7.944091 6.879785,3.972046 -6.879785,3.972046 0,-7.944091" transform="matrix(-1 0 0 1 56 33.105891)" fill="#8c00ff" stroke-width="0"/></g><g transform="matrix(0 1-1 0 63.706622-.293375)"><polygon points="0,-7.944091 6.879785,3.972046 -6.879785,3.972046 0,-7.944091" transform="matrix(-1 0 0-1 8 30.307355)" fill="#8c00ff" stroke-width="0"/><polygon points="0,-7.944091 6.879785,3.972046 -6.879785,3.972046 0,-7.944091" transform="matrix(-1 0 0 1 56 33.105891)" fill="#8c00ff" stroke-width="0"/></g><ellipse rx="4" ry="4" transform="translate(32 32)" fill="#8c00ff" stroke-width="0"/></svg>