<svg id="eH3R5iKUDuV1" xmlns="http://www.w3.org/2000/svg" xmlns:xlink="http://www.w3.org/1999/xlink" viewBox="0 0 64 64" shape-rendering="geometricPrecision" text-rendering="geometricPrecision" width="64" height="64"><line x1="-0.19608" y1="-17.450707" x2="-16.19608" y2="-1.450707" transform="translate(40.19608 41.450707)" fill="none" stroke="#ffe600" stroke-width="10"/><path d="M8,46c0-5.52285,4.47715-10,10-10s10,4.47715,10,10-4.47715,10-10,10c-.51208,0-1.01517-.03849-1.50653-.11274l1.93027-1.93027.06652.0157l5.24497-5.24497-1.62016-6.86512-6.86512-1.62016-5.24497,5.24497.01029.04359-1.91193,1.91193c-.06809-.47115-.10333-.95292-.10333-1.44293L8,46Z" fill="#ffe600" stroke-width="0"/><path d="M8,46c0-5.52285,4.47715-10,10-10s10,4.47715,10,10-4.47715,10-10,10c-.51208,0-1.01517-.03849-1.50653-.11274l1.93027-1.93027.06652.0157l5.24497-5.24497-1.62016-6.86512-6.86512-1.62016-5.24497,5.24497.01029.04359-1.91193,1.91193c-.06809-.47115-.10333-.95292-.10333-1.44293L8,46Z" transform="matrix(-1 0 0-1 64.134043 64.451585)" fill="#ffe600" stroke-width="0"/><path d="M24.999,16.58819l-7.07107,7.07107-9.65926-2.58819-2.58819-9.65926l7.07107-7.07107l9.65926,2.58819L24.999,16.58819ZM15.33975,18c2.20914,0,4-1.79086,4-4s-1.79086-4-4-4-4,1.79086-4,4s1.79086,4,4,4Z" transform="translate(-.999 0.34074)" fill="#ffe600" stroke-width="0"/><path d="M24.999,16.58819l-7.07107,7.07107-9.65926-2.58819-2.58819-9.65926l7.07107-7.07107l9.65926,2.58819L24.999,16.58819ZM15.33975,18c2.20914,0,4-1.79086,4-4s-1.79086-4-4-4-4,1.79086-4,4s1.79086,4,4,4Z" transform="translate(34.31952 35.65926)" fill="#ffe600" stroke-width="0"/></svg>